<?xml version="1.0" standalone="no"?>
<!DOCTYPE svg PUBLIC "-//W3C//DTD SVG 20010904//EN"
 "http://www.w3.org/TR/2001/REC-SVG-20010904/DTD/svg10.dtd">
<svg version="1.0" xmlns="http://www.w3.org/2000/svg"
 width="600.000000pt" height="299.000000pt" viewBox="0 0 600.000000 299.000000"
 preserveAspectRatio="xMidYMid meet">

<g transform="translate(0.000000,299.000000) scale(0.100000,-0.100000)"
fill="#000000" stroke="none">
<path d="M1253 2686 c-159 -39 -295 -161 -390 -351 -52 -102 -77 -206 -98
-397 l-6 -58 310 0 311 0 0 273 c0 149 4 287 10 306 29 102 116 108 180 12 28
-42 38 -68 79 -207 29 -101 45 -117 117 -122 48 -3 64 0 84 16 l24 20 -18 208
c-21 242 -29 293 -47 305 -8 5 -40 9 -71 9 -50 0 -62 -4 -91 -30 -39 -34 -50
-36 -90 -15 -84 44 -201 56 -304 31z"/>
<path d="M1972 2668 c-7 -7 -12 -38 -12 -69 0 -57 0 -58 42 -81 23 -13 48 -34
55 -48 9 -18 13 -100 13 -307 l0 -283 110 0 110 0 1 58 1 57 21 -57 22 -58
297 0 296 0 25 73 25 72 1 -72 1 -73 270 0 270 0 0 298 c0 163 4 302 8 309 4
6 28 21 54 32 52 22 68 44 68 95 0 67 2 67 -327 64 l-296 -3 -114 -330 c-62
-181 -116 -337 -119 -345 -3 -8 -59 140 -124 330 l-117 345 -285 3 c-212 2
-287 -1 -296 -10z"/>
<path d="M3732 2668 c-13 -13 -16 -96 -4 -115 4 -7 27 -19 52 -28 74 -26 70
-5 70 -341 l0 -304 480 0 480 0 0 83 c0 51 -5 88 -12 95 -16 16 -152 16 -166
0 -6 -7 -17 -40 -26 -73 -21 -82 -39 -95 -132 -95 l-74 0 0 325 0 325 65 0
c60 0 68 -3 100 -32 19 -18 57 -73 83 -123 53 -102 71 -115 153 -115 100 0
100 -1 46 206 -30 116 -53 183 -64 192 -24 17 -1033 18 -1051 0z"/>
<path d="M760 1820 c0 -20 5 -20 307 -18 284 3 308 4 311 21 3 16 -17 17 -307
17 -305 0 -311 0 -311 -20z"/>
<path d="M2070 1820 c0 -19 7 -20 110 -20 103 0 110 1 110 20 0 19 -7 20 -110
20 -103 0 -110 -1 -110 -20z"/>
<path d="M2354 1824 c3 -9 6 -18 6 -20 0 -6 517 -5 534 2 9 3 16 12 16 20 0
12 -47 14 -281 14 -252 0 -281 -2 -275 -16z"/>
<path d="M2980 1820 c0 -20 7 -20 270 -20 263 0 270 0 270 20 0 20 -7 20 -270
20 -263 0 -270 0 -270 -20z"/>
<path d="M3850 1820 c0 -20 7 -20 480 -20 473 0 480 0 480 20 0 20 -7 20 -480
20 -473 0 -480 0 -480 -20z"/>
<path d="M763 1753 c-11 -28 15 -253 41 -358 15 -58 46 -142 75 -200 88 -178
193 -279 345 -334 62 -22 86 -25 196 -25 102 1 136 5 182 22 154 56 254 176
265 316 4 50 2 65 -13 84 -22 27 -80 38 -149 28 -37 -6 -50 -13 -66 -39 -10
-18 -19 -48 -19 -68 0 -54 -28 -136 -58 -170 -31 -35 -95 -49 -131 -29 -48 25
-51 54 -51 435 l0 355 -305 0 c-276 0 -306 -2 -312 -17z"/>
<path d="M2070 1402 l0 -369 -50 -42 c-41 -35 -50 -48 -50 -75 0 -62 15 -66
218 -66 169 0 183 1 202 20 41 41 19 105 -49 140 -21 10 -41 26 -45 35 -3 9
-6 176 -6 371 l0 354 -110 0 -110 0 0 -368z"/>
<path d="M2461 1518 c49 -139 89 -254 89 -255 0 -2 37 -3 83 -3 l82 0 83 243
c45 133 82 248 82 255 0 9 -57 12 -254 12 l-253 0 88 -252z"/>
<path d="M2980 1410 c0 -357 0 -359 -22 -380 -12 -11 -30 -20 -40 -20 -34 0
-58 -36 -58 -88 0 -26 5 -53 12 -60 9 -9 108 -12 384 -12 415 0 384 -6 384 73
0 53 -5 59 -60 87 -25 12 -48 28 -52 34 -4 6 -8 172 -8 369 l0 357 -270 0
-270 0 0 -360z"/>
<path d="M3850 1417 c0 -395 5 -369 -72 -401 -20 -9 -43 -23 -52 -31 -18 -19
-22 -86 -6 -116 10 -18 27 -19 550 -19 l540 0 14 23 c7 12 31 102 52 201 l38
179 -23 18 c-16 13 -39 19 -72 19 -83 0 -95 -11 -159 -145 -32 -66 -68 -129
-80 -140 -17 -16 -40 -21 -101 -24 l-79 -3 0 391 0 391 71 0 c39 0 79 -4 89
-10 10 -6 27 -38 40 -77 12 -38 29 -74 38 -80 19 -16 126 -17 153 -3 16 9 19
22 19 95 l0 85 -480 0 -480 0 0 -353z"/>
<path d="M180 705 l0 -25 2815 0 2815 0 0 25 0 25 -2815 0 -2815 0 0 -25z"/>
<path d="M635 480 c-29 -32 -32 -126 -6 -167 22 -35 56 -44 79 -21 17 17 15
38 -3 38 -8 0 -15 -9 -15 -20 0 -11 -4 -20 -10 -20 -6 0 -10 40 -10 101 0 76
3 100 13 97 6 -3 13 -14 15 -26 5 -33 22 -26 22 8 0 27 -3 30 -33 30 -21 0
-41 -8 -52 -20z"/>
<path d="M735 390 l0 -111 55 3 c48 3 55 6 58 26 4 27 -14 29 -21 2 -3 -11
-10 -20 -17 -20 -9 0 -11 29 -8 105 l3 105 -35 0 -35 0 0 -110z"/>
<path d="M865 390 l0 -110 35 0 35 0 0 110 0 110 -35 0 -35 0 0 -110z"/>
<path d="M955 390 c0 -94 2 -110 16 -110 13 0 15 10 12 58 l-4 57 20 -25 c11
-14 28 -40 38 -57 32 -59 43 -42 43 61 0 52 3 101 6 110 4 11 0 16 -13 16 -18
0 -19 -6 -16 -57 l4 -58 -38 57 c-58 88 -68 80 -68 -52z"/>
<path d="M1105 390 l0 -110 35 0 35 0 0 110 0 110 -35 0 -35 0 0 -110z"/>
<path d="M1225 480 c-29 -32 -32 -126 -6 -167 22 -35 56 -44 79 -21 17 17 15
38 -3 38 -8 0 -15 -9 -15 -20 0 -11 -4 -20 -10 -20 -6 0 -10 40 -10 101 0 76
3 100 13 97 6 -3 13 -14 15 -26 5 -33 22 -26 22 8 0 27 -3 30 -33 30 -21 0
-41 -8 -52 -20z"/>
<path d="M1355 482 c5 -16 -14 -131 -31 -184 -4 -13 0 -18 16 -18 17 0 19 4
14 25 -5 21 -3 25 16 25 19 0 21 -4 16 -25 -6 -24 -4 -25 34 -25 36 0 41 3 35
19 -5 18 -35 180 -35 194 0 4 -16 7 -36 7 -30 0 -34 -3 -29 -18z m25 -112 c0
-16 -4 -30 -10 -30 -11 0 -14 43 -3 53 11 12 13 8 13 -23z"/>
<path d="M1555 390 l0 -110 51 0 c72 0 89 21 89 110 0 89 -17 110 -89 110
l-51 0 0 -110z m85 0 c0 -60 -4 -100 -10 -100 -6 0 -10 40 -10 100 0 60 4 100
10 100 6 0 10 -40 10 -100z"/>
<path d="M1725 390 l0 -110 51 0 c50 0 64 9 64 41 0 17 -18 9 -23 -11 -10 -39
-27 -20 -27 30 0 28 5 50 10 50 6 0 10 -4 10 -10 0 -5 5 -10 10 -10 6 0 10 11
10 25 0 14 -4 25 -10 25 -5 0 -10 -4 -10 -10 0 -5 -4 -10 -10 -10 -5 0 -10 20
-10 45 0 46 17 62 27 25 5 -20 23 -28 23 -11 0 32 -14 41 -64 41 l-51 0 0
-110z"/>
<path d="M1935 390 c0 -93 2 -110 16 -110 12 0 15 11 12 63 l-3 62 17 -37 c8
-21 19 -38 24 -38 4 0 14 19 23 43 l16 42 -3 -67 -3 -68 36 0 35 0 0 110 0
110 -31 0 c-28 0 -32 -4 -44 -42 l-13 -43 -11 40 c-10 34 -16 40 -41 43 l-30
3 0 -111z"/>
<path d="M2157 488 c-54 -42 -45 -185 13 -203 50 -16 90 31 90 105 0 84 -54
135 -103 98z m43 -98 c0 -60 -4 -100 -10 -100 -6 0 -10 40 -10 100 0 60 4 100
10 100 6 0 10 -40 10 -100z"/>
<path d="M2300 475 c0 -14 5 -25 10 -25 6 0 10 6 10 14 0 8 5 18 11 22 8 4 10
-25 7 -100 l-3 -106 35 0 35 0 -3 106 c-3 75 -1 104 7 100 6 -4 11 -14 11 -22
0 -8 5 -14 10 -14 6 0 10 11 10 25 0 24 -2 25 -70 25 -68 0 -70 -1 -70 -25z"/>
<path d="M2477 488 c-54 -42 -45 -185 13 -203 50 -16 90 31 90 105 0 84 -54
135 -103 98z m43 -98 c0 -60 -4 -100 -10 -100 -6 0 -10 40 -10 100 0 60 4 100
10 100 6 0 10 -40 10 -100z"/>
<path d="M2615 390 l0 -110 36 0 36 0 -5 50 c-3 32 -1 50 6 50 6 0 12 -21 14
-47 3 -46 4 -48 35 -51 32 -3 32 -3 26 35 -3 21 -13 45 -23 54 -17 15 -17 16
1 27 25 16 24 57 -1 82 -15 15 -33 20 -72 20 l-53 0 0 -110z m85 50 c0 -27 -4
-50 -10 -50 -5 0 -10 23 -10 50 0 28 5 50 10 50 6 0 10 -22 10 -50z"/>
<path d="M2785 390 l0 -110 51 0 c50 0 64 9 64 41 0 17 -18 9 -23 -11 -10 -39
-27 -20 -27 30 0 28 5 50 10 50 6 0 10 -4 10 -10 0 -5 5 -10 10 -10 6 0 10 11
10 25 0 14 -4 25 -10 25 -5 0 -10 -4 -10 -10 0 -5 -4 -10 -10 -10 -5 0 -10 20
-10 45 0 46 17 62 27 25 5 -20 23 -28 23 -11 0 32 -14 41 -64 41 l-51 0 0
-110z"/>
<path d="M2920 481 c-17 -32 -12 -54 25 -115 19 -32 35 -62 35 -67 0 -18 -19
-8 -38 18 -24 32 -36 27 -26 -11 5 -21 12 -26 39 -26 72 0 84 57 30 137 -19
29 -35 57 -35 63 0 19 20 10 32 -15 6 -14 17 -25 25 -25 14 0 15 5 7 36 -8 29
-79 33 -94 5z"/>
<path d="M3105 390 l0 -110 51 0 c50 0 64 9 64 41 0 17 -18 9 -23 -11 -10 -39
-27 -20 -27 30 0 28 5 50 10 50 6 0 10 -4 10 -10 0 -5 5 -10 10 -10 6 0 10 11
10 25 0 14 -4 25 -10 25 -5 0 -10 -4 -10 -10 0 -5 -4 -10 -10 -10 -5 0 -10 20
-10 45 0 46 17 62 27 25 5 -20 23 -28 23 -11 0 32 -14 41 -64 41 l-51 0 0
-110z"/>
<path d="M3245 390 l0 -109 112 0 c112 0 123 3 123 40 0 17 -18 9 -23 -11 -10
-39 -27 -20 -27 30 0 28 5 50 10 50 6 0 10 -4 10 -10 0 -5 5 -10 10 -10 6 0
10 11 10 25 0 14 -4 25 -10 25 -5 0 -10 -4 -10 -10 0 -5 -4 -10 -10 -10 -5 0
-10 20 -10 45 0 46 17 62 27 25 5 -20 23 -28 23 -11 0 32 -14 41 -64 41 l-51
0 2 -102 c1 -57 -1 -95 -3 -85 -7 23 -20 22 -27 -3 -3 -11 -10 -20 -17 -20 -9
0 -11 29 -8 105 l3 105 -35 0 -35 0 0 -110z"/>
<path d="M3535 480 c-29 -32 -32 -126 -6 -167 22 -35 56 -44 79 -21 17 17 15
38 -3 38 -8 0 -15 -9 -15 -20 0 -11 -4 -20 -10 -20 -6 0 -10 40 -10 101 0 76
3 100 13 97 6 -3 13 -14 15 -26 5 -33 22 -26 22 8 0 27 -3 30 -33 30 -21 0
-41 -8 -52 -20z"/>
<path d="M3640 475 c0 -14 5 -25 10 -25 6 0 10 6 10 14 0 8 5 18 11 22 8 4 10
-25 7 -100 l-3 -106 35 0 35 0 -3 106 c-3 75 -1 104 7 100 6 -4 11 -14 11 -22
0 -8 5 -14 11 -14 7 0 10 -28 8 -85 l-4 -85 36 0 36 0 -5 50 c-3 32 -1 50 6
50 6 0 12 -21 14 -47 3 -46 4 -48 35 -51 32 -3 32 -3 26 35 -3 21 -13 45 -23
54 -17 15 -17 16 1 27 25 16 24 57 -1 82 -18 18 -33 20 -140 20 l-120 0 0 -25z
m220 -35 c0 -27 -4 -50 -10 -50 -5 0 -10 23 -10 50 0 28 5 50 10 50 6 0 10
-22 10 -50z"/>
<path d="M3945 390 l0 -110 35 0 35 0 0 110 0 110 -35 0 -35 0 0 -110z"/>
<path d="M4075 480 c-29 -32 -32 -126 -6 -167 22 -35 56 -44 79 -21 17 17 15
38 -3 38 -8 0 -15 -9 -15 -20 0 -11 -4 -20 -10 -20 -6 0 -10 40 -10 101 0 76
3 100 13 97 6 -3 13 -14 15 -26 5 -33 22 -26 22 8 0 27 -3 30 -33 30 -21 0
-41 -8 -52 -20z"/>
<path d="M4217 488 c-54 -42 -45 -185 13 -203 50 -16 90 31 90 105 0 84 -54
135 -103 98z m43 -98 c0 -60 -4 -100 -10 -100 -6 0 -10 40 -10 100 0 60 4 100
10 100 6 0 10 -40 10 -100z"/>
<path d="M4350 481 c-17 -32 -12 -54 25 -115 19 -32 35 -62 35 -67 0 -18 -19
-8 -38 18 -24 32 -36 27 -26 -11 5 -21 12 -26 39 -26 72 0 84 57 30 137 -19
29 -35 57 -35 63 0 19 20 10 32 -15 6 -14 17 -25 25 -25 14 0 15 5 7 36 -8 29
-79 33 -94 5z"/>
<path d="M4565 482 c5 -16 -14 -131 -31 -184 -4 -13 0 -18 16 -18 17 0 19 4
14 25 -5 21 -3 25 16 25 19 0 21 -4 16 -25 -6 -24 -4 -25 34 -25 36 0 41 3 35
19 -5 18 -35 180 -35 194 0 4 -16 7 -36 7 -30 0 -34 -3 -29 -18z m25 -112 c0
-16 -4 -30 -10 -30 -11 0 -14 43 -3 53 11 12 13 8 13 -23z"/>
<path d="M4685 390 c0 -93 2 -110 16 -110 12 0 15 11 12 63 l-3 62 17 -37 c8
-21 19 -38 24 -38 4 0 14 19 23 43 l16 42 -3 -67 -3 -68 36 0 35 0 0 110 0
110 -31 0 c-28 0 -32 -4 -44 -42 l-13 -43 -11 40 c-10 34 -16 40 -41 43 l-30
3 0 -111z"/>
<path d="M4875 390 l0 -110 35 0 35 0 0 110 0 110 -35 0 -35 0 0 -110z"/>
<path d="M4965 390 l0 -110 36 0 36 0 -5 50 c-3 32 -1 50 6 50 6 0 12 -21 14
-47 3 -46 4 -48 35 -51 32 -3 32 -3 26 35 -3 21 -13 45 -23 54 -17 15 -17 16
1 27 25 16 24 57 -1 82 -15 15 -33 20 -72 20 l-53 0 0 -110z m85 50 c0 -27 -4
-50 -10 -50 -5 0 -10 23 -10 50 0 28 5 50 10 50 6 0 10 -22 10 -50z"/>
</g>
</svg>
